<svg width="128" height="128" viewBox="0 0 512 512" fill="none" xmlns="http://www.w3.org/2000/svg">
  <rect x="56" y="56" width="400" height="400" rx="112" fill="#132A2E"/>
  <rect x="74" y="74" width="364" height="364" rx="94" fill="#1D3B40"/>
  <path d="M151 303C151 240.592 201.592 190 264 190H275C337.408 190 388 240.592 388 303V311H151V303Z" fill="#F2C17D"/>
  <path d="M186 320H389C382.183 353.703 352.44 378 317.5 378H257.5C222.56 378 192.817 353.703 186 320Z" fill="#FFF2D6"/>
  <circle cx="272" cy="196" r="15" fill="#FFF8E7"/>
  <path d="M246 161C254.366 144.617 271.697 135.36 279 133C279.745 148.818 274.391 181.414 246 198C242.309 187.86 237.634 177.383 246 161Z" fill="#30A76E"/>
  <path d="M291.5 158C308.127 161.092 319.05 173.472 322 179.5C308.745 186.814 279.342 195.3 268.5 169C274.602 165.438 281.57 155.908 291.5 158Z" fill="#30A76E"/>
</svg>
